<svg xmlns="http://www.w3.org/2000/svg" viewBox="0 0 100 100" width="100" height="100">
	<style>
		tspan { white-space:pre }
		.shp0 { fill: #ffffff } 
	</style>
	<g id="Layer">
		<g id="Layer">
			<path id="Layer" fill-rule="evenodd" class="shp0" d="M61.75 51.84C61.75 56.26 56.33 59.81 51.84 59.81C47.45 59.81 43.88 56.24 43.88 51.84C43.88 47.36 47.43 41.93 51.84 41.93C53.91 41.93 56.38 43.17 58.45 45.24C60.52 47.31 61.75 49.78 61.75 51.84ZM46.81 51.84C46.81 54.62 49.07 56.88 51.84 56.88C54.83 56.88 58.82 54.39 58.82 51.84C58.82 49.04 54.65 44.86 51.84 44.86C49.3 44.86 46.81 48.86 46.81 51.84Z" />
			<path id="Layer" fill-rule="evenodd" class="shp0" d="M65.05 85.05C60.56 85.05 55.14 81.5 55.14 77.08C55.14 75.02 56.37 72.55 58.44 70.48C60.51 68.41 62.98 67.17 65.05 67.17C69.46 67.17 73.01 72.59 73.01 77.08C73.01 81.48 69.44 85.05 65.05 85.05ZM58.07 77.08C58.07 79.63 62.06 82.12 65.05 82.12C67.82 82.12 70.08 79.86 70.08 77.08C70.08 74.1 67.59 70.1 65.05 70.1C62.24 70.1 58.07 74.28 58.07 77.08Z" />
			<path id="Layer" fill-rule="evenodd" class="shp0" d="M47.78 26.8C47.78 31.19 44.2 34.77 39.81 34.77C35.32 34.77 29.9 31.21 29.9 26.8C29.9 24.73 31.13 22.26 33.2 20.19C35.27 18.13 37.74 16.89 39.81 16.89C44.22 16.89 47.78 22.31 47.78 26.8ZM39.81 31.84C42.59 31.84 44.85 29.58 44.85 26.8C44.85 23.82 42.36 19.82 39.81 19.82C37 19.82 32.83 24 32.83 26.8C32.83 29.35 36.82 31.84 39.81 31.84Z" />
			<path id="Layer" fill-rule="evenodd" class="shp0" d="M12.62 61.16C12.62 59.1 13.85 56.63 15.92 54.56C17.99 52.49 20.46 51.25 22.53 51.25C26.94 51.25 30.5 56.67 30.5 61.16C30.5 65.56 26.92 69.13 22.53 69.13C18.04 69.13 12.62 65.58 12.62 61.16ZM15.55 61.16C15.55 63.71 19.55 66.2 22.53 66.2C25.31 66.2 27.57 63.94 27.57 61.16C27.57 58.18 25.08 54.18 22.53 54.18C19.72 54.18 15.55 58.36 15.55 61.16Z" />
			<path id="Layer" fill-rule="evenodd" class="shp0" d="M75.53 23.88C79.94 23.88 83.5 29.3 83.5 33.79C83.5 38.18 79.92 41.76 75.53 41.76C71.04 41.76 65.62 38.2 65.62 33.79C65.62 31.72 66.86 29.25 68.92 27.18C70.99 25.11 73.46 23.88 75.53 23.88ZM80.57 33.79C80.57 30.81 78.08 26.81 75.53 26.81C72.72 26.81 68.55 30.98 68.55 33.79C68.55 36.34 72.55 38.83 75.53 38.83C78.31 38.83 80.57 36.57 80.57 33.79Z" />
			<path id="Layer" class="shp0" d="M57.57 30.97C56.5 30.97 55.63 30.11 55.63 29.03C55.63 27.96 56.5 27.09 57.57 27.09C58.65 27.09 59.51 27.96 59.51 29.03C59.51 30.11 58.65 30.97 57.57 30.97Z" />
			<path id="Layer" class="shp0" d="M44.37 67.86C43.3 67.86 42.43 68.73 42.43 69.8C42.43 70.87 43.3 71.74 44.37 71.74C45.44 71.74 46.31 70.87 46.31 69.8C46.31 68.73 45.44 67.86 44.37 67.86Z" />
			<path id="Layer" class="shp0" d="M76.01 54.85C76.01 53.78 75.15 52.91 74.07 52.91C73 52.91 72.13 53.78 72.13 54.85C72.13 55.93 73 56.79 74.07 56.79C75.15 56.79 76.01 55.93 76.01 54.85Z" />
			<path id="Layer" class="shp0" d="M81.26 70C80.18 70 79.32 69.13 79.32 68.06C79.32 66.98 80.18 66.11 81.26 66.11C82.33 66.11 83.2 66.98 83.2 68.06C83.2 69.13 82.33 70 81.26 70Z" />
			<path id="Layer" class="shp0" d="M47.09 85.53C47.09 86.6 47.96 87.47 49.03 87.47C50.1 87.47 50.97 86.6 50.97 85.53C50.97 84.46 50.1 83.59 49.03 83.59C47.96 83.59 47.09 84.46 47.09 85.53L47.09 85.53Z" />
			<path id="Layer" class="shp0" d="M91.16 51.16C91.16 50.09 90.29 49.22 89.22 49.22C88.14 49.22 87.28 50.09 87.28 51.16C87.28 52.24 88.14 53.11 89.22 53.11C90.29 53.11 91.16 52.24 91.16 51.16Z" />
			<path id="Layer" class="shp0" d="M62.81 16.8C61.74 16.8 60.87 15.93 60.87 14.86C60.87 13.79 61.74 12.92 62.81 12.92C63.89 12.92 64.75 13.79 64.75 14.86C64.75 15.93 63.89 16.8 62.81 16.8Z" />
			<path id="Layer" class="shp0" d="M19.71 28.64C18.64 28.64 17.77 27.78 17.77 26.7C17.77 25.63 18.64 24.76 19.71 24.76C20.79 24.76 21.66 25.63 21.66 26.7C21.66 27.78 20.79 28.64 19.71 28.64Z" />
			<path id="Layer" class="shp0" d="M27.29 38.74C26.21 38.74 25.34 39.61 25.34 40.68C25.34 41.75 26.21 42.62 27.29 42.62C28.36 42.62 29.23 41.75 29.23 40.68C29.23 39.61 28.36 38.74 27.29 38.74Z" />
			<path id="Layer" class="shp0" d="M30 76.6C28.93 76.6 28.06 77.47 28.06 78.54C28.06 79.61 28.93 80.48 30 80.48C31.08 80.48 31.94 79.61 31.94 78.54C31.94 77.47 31.08 76.6 30 76.6Z" />
			<path id="Layer" class="shp0" d="M28.88 91.61C27.83 91.39 27.08 91.13 26.46 90.77C25.3 90.1 24.36 88.94 23.36 87.71C22.57 86.73 21.74 85.71 20.74 84.87C19.74 84.02 18.59 83.39 17.48 82.77C16.1 82 14.8 81.28 13.94 80.26C13.08 79.24 12.6 77.83 12.08 76.34C11.66 75.14 11.23 73.9 10.57 72.76C9.92 71.63 9.07 70.65 8.24 69.7C7.2 68.5 6.22 67.37 5.76 66.1C5.31 64.87 5.33 63.38 5.35 61.81C5.38 60.54 5.4 59.22 5.17 57.91C4.95 56.64 4.48 55.44 4.04 54.27C3.47 52.78 2.93 51.38 2.93 50C2.93 48.62 3.47 47.22 4.04 45.73C4.48 44.56 4.95 43.36 5.17 42.09C5.4 40.78 5.38 39.46 5.35 38.19C5.33 36.62 5.31 35.13 5.76 33.9C6.22 32.63 7.2 31.5 8.24 30.3C9.07 29.35 9.92 28.37 10.57 27.24C11.23 26.1 11.66 24.86 12.08 23.66C12.6 22.17 13.08 20.76 13.94 19.74C14.8 18.72 16.1 18 17.48 17.23C18.59 16.61 19.74 15.97 20.74 15.13C21.74 14.29 22.57 13.27 23.36 12.29C24.36 11.06 25.3 9.9 26.46 9.23C27.61 8.56 29.08 8.33 30.64 8.08C31.89 7.88 33.19 7.67 34.43 7.22C35.64 6.77 36.75 6.11 37.83 5.46C39.19 4.64 40.48 3.87 41.82 3.64C43.1 3.41 44.55 3.69 46.09 3.99C47.35 4.23 48.65 4.48 50 4.48C51.34 4.48 52.65 4.23 53.91 3.99C55.44 3.69 56.89 3.41 58.18 3.64C59.52 3.87 60.81 4.65 62.17 5.46C63.25 6.11 64.36 6.77 65.57 7.22C65.78 7.29 66.01 7.37 66.23 7.43C67.01 7.66 67.82 7.22 68.05 6.44C68.28 5.66 67.83 4.85 67.06 4.62C66.89 4.57 66.73 4.52 66.57 4.46C65.62 4.12 64.68 3.55 63.68 2.95C62.15 2.03 60.56 1.08 58.68 0.75C56.87 0.43 55.08 0.78 53.36 1.11C52.18 1.34 51.07 1.55 50 1.55C48.93 1.55 47.82 1.34 46.64 1.11C44.92 0.78 43.13 0.43 41.32 0.75C39.44 1.08 37.85 2.03 36.32 2.95C35.32 3.55 34.38 4.12 33.43 4.46C32.45 4.82 31.34 5 30.17 5.18C28.42 5.47 26.61 5.76 24.99 6.69C23.36 7.64 22.21 9.07 21.09 10.45C20.34 11.36 19.64 12.23 18.86 12.89C18.07 13.55 17.09 14.09 16.06 14.67C14.51 15.53 12.9 16.42 11.7 17.86C10.49 19.29 9.89 21.02 9.31 22.7C8.92 23.82 8.56 24.87 8.04 25.77C7.53 26.66 6.8 27.49 6.03 28.38C4.86 29.72 3.65 31.11 3 32.9C2.37 34.64 2.4 36.47 2.43 38.23C2.44 39.43 2.46 40.55 2.28 41.58C2.11 42.57 1.72 43.6 1.3 44.68C0.66 46.35 0 48.08 0 50C0 51.92 0.66 53.65 1.3 55.32C1.72 56.4 2.11 57.43 2.28 58.41C2.46 59.45 2.44 60.57 2.43 61.76C2.4 63.53 2.37 65.36 3 67.11C3.65 68.89 4.86 70.28 6.03 71.62C6.8 72.51 7.53 73.34 8.04 74.23C8.56 75.13 8.92 76.18 9.31 77.3C9.89 78.98 10.49 80.71 11.7 82.14C12.9 83.58 14.51 84.47 16.06 85.33C17.09 85.91 18.07 86.45 18.86 87.11C19.64 87.77 20.34 88.64 21.09 89.55C22.21 90.93 23.36 92.36 24.99 93.31C25.88 93.82 26.93 94.19 28.28 94.48C28.38 94.5 28.48 94.51 28.58 94.51C29.26 94.51 29.87 94.04 30.01 93.35C30.18 92.55 29.67 91.78 28.88 91.61L28.88 91.61Z" />
			<path id="Layer" class="shp0" d="M98.7 44.68C98.28 43.6 97.89 42.57 97.72 41.59C97.54 40.55 97.56 39.43 97.57 38.24C97.6 36.47 97.63 34.64 97 32.89C96.35 31.11 95.14 29.72 93.97 28.38C93.2 27.49 92.47 26.66 91.96 25.77C91.44 24.87 91.08 23.82 90.69 22.7C90.11 21.02 89.51 19.29 88.3 17.86C87.1 16.42 85.49 15.53 83.94 14.67C82.91 14.09 81.93 13.55 81.14 12.89C80.36 12.23 79.66 11.36 78.91 10.45C77.79 9.07 76.64 7.64 75.01 6.69C74.65 6.49 74.27 6.31 73.86 6.14C73.1 5.84 72.25 6.21 71.95 6.96C71.66 7.71 72.02 8.57 72.78 8.86C73.06 8.97 73.31 9.09 73.54 9.23C74.7 9.9 75.64 11.06 76.64 12.29C77.43 13.27 78.26 14.29 79.26 15.13C80.26 15.98 81.41 16.61 82.52 17.23C83.9 18 85.2 18.72 86.06 19.74C86.92 20.76 87.4 22.17 87.92 23.66C88.34 24.86 88.77 26.1 89.43 27.24C90.08 28.37 90.93 29.35 91.76 30.3C92.8 31.5 93.78 32.63 94.24 33.9C94.69 35.13 94.67 36.62 94.65 38.19C94.62 39.46 94.6 40.78 94.83 42.09C95.05 43.36 95.52 44.56 95.96 45.73C96.53 47.22 97.07 48.62 97.07 50C97.07 51.38 96.53 52.78 95.96 54.27C95.52 55.44 95.05 56.64 94.83 57.91C94.6 59.22 94.62 60.54 94.64 61.81C94.67 63.38 94.69 64.87 94.24 66.1C93.78 67.37 92.8 68.5 91.76 69.7C90.93 70.65 90.08 71.63 89.43 72.76C88.77 73.9 88.34 75.14 87.92 76.34C87.4 77.83 86.92 79.24 86.06 80.26C85.2 81.28 83.9 82 82.52 82.77C81.41 83.39 80.26 84.03 79.26 84.87C78.26 85.71 77.43 86.73 76.64 87.71C75.64 88.94 74.7 90.1 73.54 90.77C72.39 91.44 70.92 91.67 69.36 91.92C68.11 92.12 66.81 92.33 65.57 92.78C64.36 93.23 63.25 93.89 62.17 94.54C60.81 95.36 59.52 96.13 58.18 96.36C56.9 96.59 55.45 96.31 53.91 96.01C52.65 95.77 51.35 95.52 50 95.52C48.66 95.52 47.35 95.77 46.09 96.01C44.56 96.31 43.11 96.59 41.82 96.36C40.48 96.13 39.19 95.36 37.83 94.54C37.19 94.16 36.53 93.76 35.85 93.41C35.13 93.05 34.25 93.33 33.88 94.05C33.52 94.77 33.8 95.66 34.52 96.02C35.11 96.33 35.7 96.68 36.32 97.05C37.86 97.97 39.44 98.92 41.32 99.25C43.13 99.57 44.92 99.22 46.64 98.89C47.82 98.66 48.94 98.45 50 98.45C51.07 98.45 52.18 98.66 53.36 98.89C54.6 99.13 55.88 99.37 57.17 99.37C57.67 99.37 58.18 99.34 58.68 99.25C60.56 98.92 62.15 97.97 63.68 97.05C64.68 96.45 65.62 95.88 66.57 95.54C67.55 95.18 68.66 95 69.83 94.81C71.58 94.53 73.39 94.24 75.01 93.31C76.64 92.36 77.79 90.93 78.91 89.55C79.66 88.64 80.36 87.77 81.14 87.11C81.93 86.45 82.91 85.91 83.94 85.33C85.49 84.47 87.1 83.58 88.3 82.14C89.51 80.71 90.11 78.98 90.69 77.3C91.08 76.18 91.44 75.13 91.96 74.23C92.47 73.34 93.2 72.51 93.97 71.62C95.14 70.28 96.35 68.89 97 67.1C97.63 65.36 97.6 63.53 97.57 61.76C97.56 60.57 97.54 59.45 97.72 58.42C97.89 57.43 98.28 56.4 98.7 55.32C99.34 53.65 100 51.92 100 50C100 48.08 99.34 46.35 98.7 44.68Z" />
		</g>
	</g>
</svg>